<svg xmlns="http://www.w3.org/2000/svg" width="101" height="60" fill="none"><g fill="#fff" clip-path="url(#a)"><path d="M18.566 41.883c.14 1.24-1.302 9.903 13.528 12.77C46.77 57.49 65.04 50.005 65.04 50.005h1.054s-16.054 7.95-32.48 5.595c-16.428-2.356-15.606-11.794-15.668-13.716h.62Z"/><path d="M49.234 49.989s-10.631 6.122-18.488 6.478c-7.857.356-14.645-2.418-12.599-14.584h-.62s-1.766 10.461 4.293 13.67c6.059 3.208 13.962 3.487 30.916-5.564h-3.502ZM11.546 24.183v5.905H4.68v-5.905H1.89v13.313h2.774v-6.215h6.865v4.774a1.55 1.55 0 0 0 .17.744c.114.178.268.327.45.434.173.099.362.167.558.201.174.03.35.045.527.047h1.07V24.168h-2.76v.015Zm54.347 13.313V24.183H63.18l-5.44 9.857-5.547-9.857h-2.759v13.313h1.426V27.174l5.842 10.322h.728l5.688-10.244v8.803c-.009.26.056.518.186.744.108.178.256.326.434.434.175.106.37.174.573.201.18.03.36.046.543.047h1.038v.015Zm17.45 0L76.383 23.89h-.806L68.45 37.496h1.627l2.216-4.23h5.052l-.697-1.364h-3.642l2.34-4.48 4.587 9.005c.145.324.375.602.666.806.316.18.676.266 1.039.248h1.704v.015ZM97.8 24.183a1.709 1.709 0 0 0-.264.016.62.62 0 0 0-.279.108.83.83 0 0 0-.232.233.696.696 0 0 0-.093.372v8.586l-9.252-9.315H85.9v13.313h1.627V27.453l9.392 9.702c.387.357.914.326 1.425.326h.186V24.168h-.728v.015ZM68.45 9.212c-6.214-.527-13.312.217-18.054 1.178-5.78 1.178-11.173 2.805-16.256 5.037a48.79 48.79 0 0 0-3.378 1.658 79.913 79.913 0 0 1 11.715-7.346C54.348 3.694 66.792 1.4 72.681 5.787a7.218 7.218 0 0 1 2.882 4.634 41.534 41.534 0 0 0-7.113-1.21Zm-39.873 9.624s3.239-1.844 5.672-2.867c5.981-2.542 11.25-4.03 16.1-4.944 3.921-.744 15.854-2.604 25.323.372.155 2.2-.45 4.743-1.659 7.455h3.89c.96-2 1.612-3.937 1.906-5.735a16.952 16.952 0 0 1 3.983 2.93c1.085 1.084 2.123 2.805 2.123 2.805h1.72a12.267 12.267 0 0 0-2.356-3.302c-1.503-1.534-3.362-2.696-5.33-3.58.294-3.502-.853-6.478-3.797-8.524-7.035-4.913-20.983-2.092-33.845 4.805a83.344 83.344 0 0 0-15.31 10.6h1.58v-.015ZM24.873 23.889h-.822l-7.128 13.607h1.627l5.269-10.058 2.278 4.479H22.44l-.713 1.364h5.067l1.596 3.177c.146.324.376.602.667.806.315.18.676.266 1.038.248H31.8l-6.927-13.623Zm12.35 1.457v5.037h1.287s1.27.015 2.107-.45c.837-.465 1.41-1.131 1.41-2.123a2.407 2.407 0 0 0-1.533-2.216 3.532 3.532 0 0 0-1.426-.248h-1.844Zm5.533 11.081-4.106-5.021h-1.426v6.09H34.45V24.183h5.098s2.108-.03 3.487.651c1.38.682 1.968 1.659 1.968 2.883s-.744 2.681-3.378 3.41l5.315 6.354h-2.123a3.525 3.525 0 0 1-.976-.17c-.527-.171-1.085-.884-1.085-.884ZM39.394 42.44l-.79 1.737h1.58l-.79-1.736Zm1.782 3.24h-.295l-.589-1.27h-1.797l-.59 1.27h-.294l1.705-3.704h.155l1.705 3.704Zm33.736-3.115a2.68 2.68 0 0 0-1.317-.357 1.628 1.628 0 0 0 .03 3.255c.464-.011.917-.14 1.318-.372v.294c-.4.22-.846.337-1.302.342-1.115 0-1.952-.806-1.952-1.891a1.898 1.898 0 0 1 1.937-1.891c.45.012.894.117 1.302.31v.31h-.016Zm2.666-.357a1.627 1.627 0 1 0 .03 3.255 1.627 1.627 0 0 0-.03-3.255Zm-.016 3.519a1.892 1.892 0 1 1 1.8-1.154 1.9 1.9 0 0 1-1.8 1.154Zm6.013-3.736h.279v3.689h-.28v-3.27h-.015l-1.394 1.72-1.395-1.72h-.016v3.27h-.279v-3.689h.28l1.41 1.72 1.41-1.72Zm1.674 1.72h.681c.682 0 .946-.325.946-.743 0-.419-.264-.744-.915-.744h-.712v1.488Zm.728-1.72c.868 0 1.209.45 1.209.977 0 .48-.28.992-1.225.992h-.697v1.72h-.279v-3.689h.992Zm2.913.45-.79 1.736h1.58l-.79-1.736Zm1.782 3.239h-.294l-.589-1.27h-1.798l-.588 1.27h-.295l1.705-3.704h.155l1.704 3.704Zm4.03 0h-.233l-2.805-3.224v3.224h-.279v-3.689h.233l2.79 3.224v-3.224h.293v3.689Zm2.401-1.984v1.984h-.278v-1.984l-1.442-1.705h.357l1.224 1.457 1.224-1.457h.357l-1.442 1.705Zm-51.945.961a.43.43 0 0 1 0 .28.31.31 0 0 1-.356.247.333.333 0 0 1-.372-.34v-.357h-.992v.279c0 .837.651 1.084 1.348 1.084.667 0 1.225-.232 1.318-.852.034-.2.034-.404 0-.604-.155-.775-1.566-1.008-1.674-1.442a.437.437 0 0 1 0-.201.31.31 0 0 1 .34-.248.312.312 0 0 1 .342.34v.233h.93v-.263c0-.806-.729-.93-1.256-.93-.666 0-1.193.217-1.301.821-.034.165-.028.334.015.496.155.76 1.472.977 1.658 1.457Zm12.072 0a.568.568 0 0 1 0 .28.31.31 0 0 1-.356.247c-.233 0-.372-.124-.372-.325v-.357h-.992v.28c0 .82.651 1.069 1.333 1.069.682 0 1.209-.233 1.302-.837.033-.2.033-.405 0-.605-.155-.775-1.55-1.007-1.659-1.426a.364.364 0 0 1 0-.186.31.31 0 0 1 .341-.248.31.31 0 0 1 .341.341v.233h.915v-.295c0-.806-.713-.93-1.24-.93-.651 0-1.193.217-1.286.822-.034.164-.028.334.015.496.17.744 1.472.96 1.658 1.441Zm7.718.326-.062-2.992h.914v3.673h-1.317l-.93-3.084.046 3.084h-.914v-3.673h1.38l.883 2.992ZM48.242 42.27l-.511 3.441h-1.008l.682-3.72h1.658l.682 3.72h-.991l-.512-3.44Zm5.424 0-.635 3.441h-.946l-.635-3.44-.031 3.44h-.93l.078-3.72h1.518l.465 2.914.48-2.914h1.504l.093 3.72h-.946l-.015-3.44Zm6.68 2.883a.337.337 0 0 0 .356-.263.435.435 0 0 0 .015-.14v-2.743h.945v2.914c-.062.697-.62.914-1.301.914-.682 0-1.225-.217-1.302-.914 0-.047-.015-.17-.015-.248v-2.666h.945v2.743a.387.387 0 0 0 .015.14.31.31 0 0 0 .341.263Zm7.748-.03a.347.347 0 0 0 .387-.28.421.421 0 0 0 .015-.14v-.542h-.387v-.542h1.317v.992c.001.083-.004.166-.015.248-.062.681-.651.914-1.302.914-.65 0-1.24-.248-1.302-.914a1.62 1.62 0 0 1-.015-.248v-1.566c0-.062.015-.186.015-.248.078-.697.651-.914 1.302-.914.65 0 1.24.217 1.302.914.009.083.009.166 0 .248v.124h-.93v-.201a.586.586 0 0 0-.016-.14.343.343 0 0 0-.371-.263.356.356 0 0 0-.372.263.59.59 0 0 0-.016.17v1.69a.436.436 0 0 0 .016.14.338.338 0 0 0 .372.294Z"/></g><defs><clipPath id="a"><path fill="#fff" d="M.643.938h100V59.43h-100z"/></clipPath></defs></svg>